<svg width="23" height="23" viewBox="0 0 23 23" fill="none" xmlns="http://www.w3.org/2000/svg">
<path d="M7 0.5C3.41624 0.5 0.5 3.41624 0.5 7V16C0.5 19.5838 3.41624 22.5 7 22.5H16C19.5838 22.5 22.5 19.5838 22.5 16V7C22.5 3.41624 19.5838 0.5 16 0.5H7ZM7 1.5H16C19.0432 1.5 21.5 3.95676 21.5 7V16C21.5 19.0432 19.0432 21.5 16 21.5H7C3.95676 21.5 1.5 19.0432 1.5 16V7C1.5 3.95676 3.95676 1.5 7 1.5ZM17.5 4.5C17.2348 4.5 16.9804 4.60536 16.7929 4.79289C16.6054 4.98043 16.5 5.23478 16.5 5.5C16.5 5.76522 16.6054 6.01957 16.7929 6.20711C16.9804 6.39464 17.2348 6.5 17.5 6.5C17.7652 6.5 18.0196 6.39464 18.2071 6.20711C18.3946 6.01957 18.5 5.76522 18.5 5.5C18.5 5.23478 18.3946 4.98043 18.2071 4.79289C18.0196 4.60536 17.7652 4.5 17.5 4.5ZM11.5 6C8.46836 6 6 8.46836 6 11.5C6 14.5316 8.46836 17 11.5 17C14.5316 17 17 14.5316 17 11.5C17 8.46836 14.5316 6 11.5 6ZM11.5 7C13.9912 7 16 9.0088 16 11.5C16 13.9912 13.9912 16 11.5 16C9.0088 16 7 13.9912 7 11.5C7 9.0088 9.0088 7 11.5 7Z" fill="black"/>
</svg>
