<svg width="20" height="20" viewBox="0 0 20 20" fill="none" xmlns="http://www.w3.org/2000/svg">
    <path d="M2.29013 18.6243C2.27873 18.4723 2.27303 18.3203 2.27303 18.1664C2.27303 14.3987 5.65693 11.3359 9.81793 11.3359C13.9789 11.3359 17.3628 14.4006 17.3628 18.1664C17.3628 18.3203 17.3571 18.4723 17.3457 18.6243H18.6301C18.6396 18.4723 18.6434 18.3203 18.6434 18.1664C18.6434 17.0625 18.4059 15.9909 17.9404 14.9839C17.492 14.0149 16.8517 13.1466 16.0366 12.4018C14.7446 11.2219 13.1258 10.4543 11.3702 10.1693C13.4659 9.50427 14.9897 7.53017 14.9897 5.20457C14.9897 2.33937 12.6698 0.00427246 9.81793 0.00427246C6.96603 0.00427246 4.64613 2.33937 4.64613 5.20837C4.64613 7.53397 6.16993 9.50807 8.26563 10.1731C6.50813 10.4581 4.88933 11.2257 3.59923 12.4056C2.78413 13.1504 2.14383 14.0187 1.69543 14.9877C1.22803 15.9947 0.992432 17.0663 0.992432 18.1702C0.992432 18.3241 0.996232 18.4761 1.00573 18.6281L2.29013 18.6243ZM5.96663 5.20837C5.96663 3.07087 7.69373 1.33237 9.81793 1.33237C11.9421 1.33237 13.6692 3.07087 13.6692 5.20837C13.6692 7.34587 11.9421 9.08437 9.81793 9.08437C7.69373 9.08437 5.96663 7.34397 5.96663 5.20837Z"/>
</svg>